<mxfile host="Electron" modified="2023-04-20T01:31:48.366Z" agent="Mozilla/5.0 (Windows NT 10.0; Win64; x64) AppleWebKit/537.36 (KHTML, like Gecko) draw.io/21.1.2 Chrome/106.0.5249.199 Electron/21.4.3 Safari/537.36" etag="z8Qcv4z6DVFi7_Eavab9" version="21.1.2" type="device">
  <diagram name="Page-1" id="H-hyoX8BGCU2cNrV9UYJ">
    <mxGraphModel dx="2231" dy="854" grid="1" gridSize="10" guides="1" tooltips="1" connect="1" arrows="1" fold="1" page="1" pageScale="1" pageWidth="827" pageHeight="1169" math="0" shadow="0">
      <root>
        <mxCell id="0" />
        <mxCell id="1" parent="0" />
        <mxCell id="qAHgqz0eUeoznk-cRHLN-17" value="" style="rounded=0;whiteSpace=wrap;html=1;fillColor=#F8F8F8;strokeWidth=2;" vertex="1" parent="1">
          <mxGeometry x="-150" y="270" width="1000" height="210" as="geometry" />
        </mxCell>
        <mxCell id="qAHgqz0eUeoznk-cRHLN-27" value="" style="endArrow=none;html=1;rounded=0;endFill=0;strokeWidth=2;dashed=1;dashPattern=1 1;" edge="1" parent="1">
          <mxGeometry width="50" height="50" relative="1" as="geometry">
            <mxPoint y="380" as="sourcePoint" />
            <mxPoint x="800" y="380" as="targetPoint" />
          </mxGeometry>
        </mxCell>
        <mxCell id="qAHgqz0eUeoznk-cRHLN-15" value="" style="rounded=0;whiteSpace=wrap;html=1;fillColor=#F8F8F8;strokeWidth=2;" vertex="1" parent="1">
          <mxGeometry x="-150" y="50" width="1000" height="210" as="geometry" />
        </mxCell>
        <mxCell id="qAHgqz0eUeoznk-cRHLN-12" value="" style="endArrow=none;html=1;rounded=0;endFill=0;strokeWidth=2;dashed=1;dashPattern=1 1;" edge="1" parent="1">
          <mxGeometry width="50" height="50" relative="1" as="geometry">
            <mxPoint y="240" as="sourcePoint" />
            <mxPoint x="800" y="240" as="targetPoint" />
          </mxGeometry>
        </mxCell>
        <mxCell id="qAHgqz0eUeoznk-cRHLN-9" value="" style="rounded=0;whiteSpace=wrap;html=1;fillColor=#CCCCCC;dashed=1;dashPattern=1 1;" vertex="1" parent="1">
          <mxGeometry x="120" y="160" width="80" height="80" as="geometry" />
        </mxCell>
        <mxCell id="qAHgqz0eUeoznk-cRHLN-1" value="" style="endArrow=none;html=1;rounded=0;strokeWidth=2;" edge="1" parent="1">
          <mxGeometry width="50" height="50" relative="1" as="geometry">
            <mxPoint y="240" as="sourcePoint" />
            <mxPoint x="800" y="240" as="targetPoint" />
            <Array as="points">
              <mxPoint x="120" y="240" />
              <mxPoint x="120" y="160" />
              <mxPoint x="640" y="160" />
              <mxPoint x="640" y="240" />
            </Array>
          </mxGeometry>
        </mxCell>
        <mxCell id="qAHgqz0eUeoznk-cRHLN-3" value="" style="endArrow=open;html=1;rounded=0;endFill=0;strokeWidth=2;" edge="1" parent="1">
          <mxGeometry width="50" height="50" relative="1" as="geometry">
            <mxPoint x="120" y="100" as="sourcePoint" />
            <mxPoint x="120" y="150" as="targetPoint" />
          </mxGeometry>
        </mxCell>
        <mxCell id="qAHgqz0eUeoznk-cRHLN-5" value="Register" style="rounded=0;whiteSpace=wrap;html=1;fillColor=none;fontSize=16;fontFamily=Fira Code;fontSource=https%3A%2F%2Ffonts.googleapis.com%2Fcss%3Ffamily%3DFira%2BCode;fontStyle=1;strokeWidth=2;strokeColor=none;" vertex="1" parent="1">
          <mxGeometry x="80" y="66" width="80" height="30" as="geometry" />
        </mxCell>
        <mxCell id="qAHgqz0eUeoznk-cRHLN-6" value="" style="endArrow=none;dashed=1;html=1;strokeWidth=2;rounded=0;" edge="1" parent="1">
          <mxGeometry width="50" height="50" relative="1" as="geometry">
            <mxPoint x="200" y="240" as="sourcePoint" />
            <mxPoint x="200" y="80" as="targetPoint" />
          </mxGeometry>
        </mxCell>
        <mxCell id="qAHgqz0eUeoznk-cRHLN-7" value="" style="endArrow=open;html=1;rounded=0;endFill=0;strokeWidth=2;entryX=0;entryY=0.5;entryDx=0;entryDy=0;" edge="1" parent="1" target="qAHgqz0eUeoznk-cRHLN-8">
          <mxGeometry width="50" height="50" relative="1" as="geometry">
            <mxPoint x="200" y="80" as="sourcePoint" />
            <mxPoint x="560" y="80" as="targetPoint" />
          </mxGeometry>
        </mxCell>
        <mxCell id="qAHgqz0eUeoznk-cRHLN-8" value="Send Message" style="rounded=0;whiteSpace=wrap;html=1;fillColor=none;fontSize=16;fontFamily=Fira Code;fontSource=https%3A%2F%2Ffonts.googleapis.com%2Fcss%3Ffamily%3DFira%2BCode;fontStyle=1;strokeWidth=2;strokeColor=none;" vertex="1" parent="1">
          <mxGeometry x="680" y="64" width="120" height="30" as="geometry" />
        </mxCell>
        <mxCell id="qAHgqz0eUeoznk-cRHLN-10" value="PRESSED" style="rounded=0;whiteSpace=wrap;html=1;fillColor=none;fontSize=16;fontFamily=Fira Code;fontSource=https%3A%2F%2Ffonts.googleapis.com%2Fcss%3Ffamily%3DFira%2BCode;fontStyle=1;strokeWidth=2;strokeColor=none;" vertex="1" parent="1">
          <mxGeometry x="-100" y="146" width="80" height="30" as="geometry" />
        </mxCell>
        <mxCell id="qAHgqz0eUeoznk-cRHLN-11" value="" style="endArrow=none;html=1;rounded=0;endFill=0;strokeWidth=2;dashed=1;dashPattern=1 1;" edge="1" parent="1">
          <mxGeometry width="50" height="50" relative="1" as="geometry">
            <mxPoint y="160" as="sourcePoint" />
            <mxPoint x="800" y="160" as="targetPoint" />
          </mxGeometry>
        </mxCell>
        <mxCell id="qAHgqz0eUeoznk-cRHLN-13" value="RELEASED" style="rounded=0;whiteSpace=wrap;html=1;fillColor=none;fontSize=16;fontFamily=Fira Code;fontSource=https%3A%2F%2Ffonts.googleapis.com%2Fcss%3Ffamily%3DFira%2BCode;fontStyle=1;strokeWidth=2;strokeColor=none;" vertex="1" parent="1">
          <mxGeometry x="-100" y="226" width="80" height="30" as="geometry" />
        </mxCell>
        <mxCell id="qAHgqz0eUeoznk-cRHLN-16" value="FRET NO DEBOUNCE" style="rounded=0;whiteSpace=wrap;html=1;fillColor=#CCCCCC;fontSize=16;fontFamily=Fira Code;fontSource=https%3A%2F%2Ffonts.googleapis.com%2Fcss%3Ffamily%3DFira%2BCode;fontStyle=1;strokeWidth=2;strokeColor=default;" vertex="1" parent="1">
          <mxGeometry x="-150" y="50" width="200" height="30" as="geometry" />
        </mxCell>
        <mxCell id="qAHgqz0eUeoznk-cRHLN-18" value="" style="endArrow=none;html=1;rounded=0;endFill=0;strokeWidth=2;dashed=1;dashPattern=1 1;" edge="1" parent="1">
          <mxGeometry width="50" height="50" relative="1" as="geometry">
            <mxPoint y="460" as="sourcePoint" />
            <mxPoint x="800" y="460" as="targetPoint" />
          </mxGeometry>
        </mxCell>
        <mxCell id="qAHgqz0eUeoznk-cRHLN-20" value="" style="endArrow=none;html=1;rounded=0;strokeWidth=2;" edge="1" parent="1">
          <mxGeometry width="50" height="50" relative="1" as="geometry">
            <mxPoint y="460" as="sourcePoint" />
            <mxPoint x="800" y="460" as="targetPoint" />
            <Array as="points">
              <mxPoint x="120" y="460" />
              <mxPoint x="120" y="380" />
              <mxPoint x="140" y="380" />
              <mxPoint x="140" y="460" />
              <mxPoint x="160" y="460" />
              <mxPoint x="160" y="380" />
              <mxPoint x="640" y="380" />
              <mxPoint x="640" y="460" />
            </Array>
          </mxGeometry>
        </mxCell>
        <mxCell id="qAHgqz0eUeoznk-cRHLN-21" value="" style="endArrow=open;html=1;rounded=0;endFill=0;strokeWidth=2;" edge="1" parent="1">
          <mxGeometry width="50" height="50" relative="1" as="geometry">
            <mxPoint x="120" y="320" as="sourcePoint" />
            <mxPoint x="120" y="370" as="targetPoint" />
          </mxGeometry>
        </mxCell>
        <mxCell id="qAHgqz0eUeoznk-cRHLN-22" value="Register" style="rounded=0;whiteSpace=wrap;html=1;fillColor=none;fontSize=16;fontFamily=Fira Code;fontSource=https%3A%2F%2Ffonts.googleapis.com%2Fcss%3Ffamily%3DFira%2BCode;fontStyle=1;strokeWidth=2;strokeColor=none;" vertex="1" parent="1">
          <mxGeometry x="80" y="286" width="80" height="30" as="geometry" />
        </mxCell>
        <mxCell id="qAHgqz0eUeoznk-cRHLN-23" value="" style="endArrow=none;dashed=1;html=1;strokeWidth=2;rounded=0;" edge="1" parent="1">
          <mxGeometry width="50" height="50" relative="1" as="geometry">
            <mxPoint x="200" y="460" as="sourcePoint" />
            <mxPoint x="200" y="300" as="targetPoint" />
          </mxGeometry>
        </mxCell>
        <mxCell id="qAHgqz0eUeoznk-cRHLN-24" value="" style="endArrow=open;html=1;rounded=0;endFill=0;strokeWidth=2;entryX=0;entryY=0.5;entryDx=0;entryDy=0;" edge="1" parent="1" target="qAHgqz0eUeoznk-cRHLN-25">
          <mxGeometry width="50" height="50" relative="1" as="geometry">
            <mxPoint x="200" y="300" as="sourcePoint" />
            <mxPoint x="560" y="300" as="targetPoint" />
          </mxGeometry>
        </mxCell>
        <mxCell id="qAHgqz0eUeoznk-cRHLN-25" value="Send Message" style="rounded=0;whiteSpace=wrap;html=1;fillColor=none;fontSize=16;fontFamily=Fira Code;fontSource=https%3A%2F%2Ffonts.googleapis.com%2Fcss%3Ffamily%3DFira%2BCode;fontStyle=1;strokeWidth=2;strokeColor=none;" vertex="1" parent="1">
          <mxGeometry x="680" y="284" width="120" height="30" as="geometry" />
        </mxCell>
        <mxCell id="qAHgqz0eUeoznk-cRHLN-26" value="PRESSED" style="rounded=0;whiteSpace=wrap;html=1;fillColor=none;fontSize=16;fontFamily=Fira Code;fontSource=https%3A%2F%2Ffonts.googleapis.com%2Fcss%3Ffamily%3DFira%2BCode;fontStyle=1;strokeWidth=2;strokeColor=none;" vertex="1" parent="1">
          <mxGeometry x="-100" y="366" width="80" height="30" as="geometry" />
        </mxCell>
        <mxCell id="qAHgqz0eUeoznk-cRHLN-28" value="RELEASED" style="rounded=0;whiteSpace=wrap;html=1;fillColor=none;fontSize=16;fontFamily=Fira Code;fontSource=https%3A%2F%2Ffonts.googleapis.com%2Fcss%3Ffamily%3DFira%2BCode;fontStyle=1;strokeWidth=2;strokeColor=none;" vertex="1" parent="1">
          <mxGeometry x="-100" y="446" width="80" height="30" as="geometry" />
        </mxCell>
        <mxCell id="qAHgqz0eUeoznk-cRHLN-29" value="FRET DEBOUNCE" style="rounded=0;whiteSpace=wrap;html=1;fillColor=#CCCCCC;fontSize=16;fontFamily=Fira Code;fontSource=https%3A%2F%2Ffonts.googleapis.com%2Fcss%3Ffamily%3DFira%2BCode;fontStyle=1;strokeWidth=2;strokeColor=default;" vertex="1" parent="1">
          <mxGeometry x="-150" y="270" width="200" height="30" as="geometry" />
        </mxCell>
        <mxCell id="qAHgqz0eUeoznk-cRHLN-30" value="" style="rounded=0;whiteSpace=wrap;html=1;fillColor=#CCCCCC;dashed=1;dashPattern=1 1;" vertex="1" parent="1">
          <mxGeometry x="120" y="380" width="19" height="80" as="geometry" />
        </mxCell>
        <mxCell id="qAHgqz0eUeoznk-cRHLN-31" value="" style="rounded=0;whiteSpace=wrap;html=1;fillColor=#CCCCCC;dashed=1;dashPattern=1 1;" vertex="1" parent="1">
          <mxGeometry x="160" y="380" width="39" height="80" as="geometry" />
        </mxCell>
      </root>
    </mxGraphModel>
  </diagram>
</mxfile>
